<?xml version="1.0" standalone="no"?>
<!DOCTYPE svg PUBLIC "-//W3C//DTD SVG 20010904//EN"
 "http://www.w3.org/TR/2001/REC-SVG-20010904/DTD/svg10.dtd">
<svg version="1.0" xmlns="http://www.w3.org/2000/svg"
 width="512.000000pt" height="512.000000pt" viewBox="0 0 512.000000 512.000000"
 preserveAspectRatio="xMidYMid meet">
<metadata>
Created by potrace 1.11, written by Peter Selinger 2001-2013
</metadata>
<g transform="translate(0.000000,512.000000) scale(0.100000,-0.100000)"
fill="#000000" stroke="none">
<path d="M2335 5104 c-114 -18 -236 -48 -340 -84 -128 -45 -334 -150 -445
-228 -116 -81 -304 -268 -383 -378 -151 -214 -248 -467 -292 -759 -17 -113
-23 -385 -11 -502 3 -36 2 -63 -3 -63 -5 0 -25 -21 -44 -47 -156 -213 9 -505
269 -478 47 4 52 3 62 -21 7 -14 12 -30 12 -36 0 -5 16 -44 35 -85 19 -41 35
-77 35 -79 0 -7 61 -106 119 -194 74 -112 271 -309 381 -382 106 -70 235 -139
318 -168 61 -22 62 -23 62 -61 0 -34 -3 -39 -27 -44 -178 -38 -286 -79 -408
-159 -191 -124 -349 -329 -418 -541 -43 -132 -50 -192 -53 -498 l-3 -297 1357
2 1357 3 -1 245 c0 350 -9 426 -65 578 -95 260 -312 486 -569 594 -47 20 -110
42 -140 48 -140 32 -130 27 -130 69 0 38 1 39 63 61 305 111 611 377 779 679
49 88 84 161 108 228 l22 62 63 -4 c94 -6 170 23 239 91 63 63 96 187 73 279
-11 45 -72 144 -94 152 -11 4 -13 20 -8 72 11 131 6 403 -9 489 -2 9 -7 37
-11 62 -12 71 -13 78 -35 163 -90 345 -289 652 -565 870 -227 180 -525 304
-865 362 -72 13 -356 12 -435 -1z"/>
</g>
</svg>
